<svg width="32" height="32" viewBox="0 0 32 32" fill="none" xmlns="http://www.w3.org/2000/svg">
<g id="cart">
<path id="Vector" d="M11.8489 28.4445C12.9535 28.4445 13.8489 27.549 13.8489 26.4445C13.8489 25.3399 12.9535 24.4445 11.8489 24.4445C10.7443 24.4445 9.84889 25.3399 9.84889 26.4445C9.84889 27.549 10.7443 28.4445 11.8489 28.4445Z" fill="#292929"/>
<path id="Vector_2" d="M24 28.4445C25.1046 28.4445 26 27.549 26 26.4445C26 25.3399 25.1046 24.4445 24 24.4445C22.8954 24.4445 22 25.3399 22 26.4445C22 27.549 22.8954 28.4445 24 28.4445Z" fill="#292929"/>
<path id="Vector_3" d="M29.4044 4.77335C29.3217 4.67138 29.2175 4.589 29.0991 4.53213C28.9808 4.47527 28.8513 4.44532 28.72 4.44446H10.2133L10.7911 6.22223H27.5556L25.1822 16.8889H11.8489L7.78667 4.02668C7.74273 3.8902 7.66643 3.76637 7.56427 3.66576C7.46212 3.56515 7.33714 3.49075 7.2 3.4489L3.55556 2.3289C3.4435 2.29447 3.32575 2.28244 3.20904 2.29351C3.09233 2.30458 2.97895 2.33853 2.87536 2.39342C2.66615 2.50427 2.50955 2.69369 2.44 2.92001C2.37046 3.14633 2.39366 3.39101 2.50452 3.60021C2.61537 3.80942 2.80479 3.96602 3.03111 4.03557L6.22222 5.01335L10.3022 17.9022L8.84445 19.0933L8.72889 19.2089C8.3683 19.6244 8.16391 20.1527 8.15093 20.7028C8.13795 21.2528 8.31719 21.7901 8.65778 22.2222C8.90005 22.5169 9.20792 22.7507 9.55675 22.9051C9.90558 23.0594 10.2857 23.13 10.6667 23.1111H25.5022C25.738 23.1111 25.9641 23.0175 26.1308 22.8508C26.2975 22.6841 26.3911 22.458 26.3911 22.2222C26.3911 21.9865 26.2975 21.7604 26.1308 21.5937C25.9641 21.427 25.738 21.3333 25.5022 21.3333H10.5244C10.4221 21.3298 10.3224 21.3 10.2349 21.2467C10.1474 21.1934 10.0752 21.1185 10.0252 21.0291C9.97511 20.9398 9.94896 20.839 9.94923 20.7366C9.94949 20.6342 9.97616 20.5336 10.0267 20.4445L12.1689 18.6667H25.8933C26.0988 18.6717 26.2997 18.6054 26.4618 18.4789C26.6238 18.3525 26.7371 18.1739 26.7822 17.9733L29.6 5.5289C29.627 5.39638 29.6235 5.25944 29.5896 5.12851C29.5557 4.99758 29.4924 4.87611 29.4044 4.77335Z" fill="#292929"/>
</g>
</svg>
