<svg width="32" height="32" viewBox="0 0 32 32" fill="none" xmlns="http://www.w3.org/2000/svg">
<g id="favorite">
<path id="Vector" d="M22.45 6C23.1781 5.99939 23.899 6.14413 24.5704 6.42575C25.2418 6.70736 25.8502 7.12018 26.36 7.64C27.4104 8.70638 27.9992 10.1432 27.9992 11.64C27.9992 13.1368 27.4104 14.5736 26.36 15.64L16 26.13L5.64002 15.64C4.5896 14.5736 4.00081 13.1368 4.00081 11.64C4.00081 10.1432 4.5896 8.70638 5.64002 7.64C6.15011 7.12055 6.7586 6.70795 7.42993 6.42629C8.10127 6.14464 8.82199 5.99957 9.55002 5.99957C10.278 5.99957 10.9988 6.14464 11.6701 6.42629C12.3414 6.70795 12.9499 7.12055 13.46 7.64L16 10.24L18.53 7.66C19.0383 7.13399 19.6474 6.71586 20.3209 6.43064C20.9944 6.14542 21.7186 5.99895 22.45 6ZM22.45 4C21.4556 3.99916 20.4711 4.19686 19.5541 4.5815C18.6372 4.96615 17.8062 5.53 17.11 6.24L16 7.36L14.89 6.24C14.193 5.53129 13.3618 4.96841 12.445 4.58419C11.5282 4.19997 10.5441 4.0021 9.55002 4.0021C8.55596 4.0021 7.57184 4.19997 6.65503 4.58419C5.73822 4.96841 4.90707 5.53129 4.21002 6.24C2.7919 7.68363 1.99731 9.62636 1.99731 11.65C1.99731 13.6736 2.7919 15.6164 4.21002 17.06L16 29L27.79 17.06C29.2081 15.6164 30.0027 13.6736 30.0027 11.65C30.0027 9.62636 29.2081 7.68363 27.79 6.24C27.0931 5.53091 26.2621 4.96765 25.3453 4.58306C24.4284 4.19848 23.4442 4.00028 22.45 4Z" fill="#292929"/>
</g>
</svg>
