<svg width="32" height="32" viewBox="0 0 32 32" fill="none" xmlns="http://www.w3.org/2000/svg">
<g id="home">
<path id="Vector" d="M29.3541 13.5281L16.9424 2.10932C16.5389 1.7381 16.0075 1.5372 15.4594 1.54862C14.9112 1.56003 14.3887 1.78288 14.001 2.17057L2.58581 13.5858L2 14.1716V31H13V20.5H19V31H30V14.1224L29.3541 13.5281ZM15.5024 3.54819C15.52 3.54819 15.5091 3.55201 15.5016 3.55944C15.4937 3.55201 15.4847 3.54819 15.5024 3.54819ZM28 29H21V20.5C21 19.9696 20.7893 19.4609 20.4142 19.0858C20.0391 18.7107 19.5304 18.5 19 18.5H13C12.4696 18.5 11.9609 18.7107 11.5858 19.0858C11.2107 19.4609 11 19.9696 11 20.5V29H4V15L15.5024 3.58476C15.5032 3.58401 15.5033 3.58332 15.5039 3.58257L28 15V29Z" fill="#292929"/>
</g>
</svg>
